<?xml version="1.0" standalone="no"?>
<!DOCTYPE svg PUBLIC "-//W3C//DTD SVG 20010904//EN"
 "http://www.w3.org/TR/2001/REC-SVG-20010904/DTD/svg10.dtd">
<svg version="1.0" xmlns="http://www.w3.org/2000/svg"
 width="1365.000000pt" height="630.000000pt" viewBox="0 0 1365.000000 630.000000"
 preserveAspectRatio="xMidYMid meet">

<g transform="translate(0.000000,630.000000) scale(0.100000,-0.100000)"
fill="#000000" stroke="none">
<path d="M6846 3304 c-23 -23 -23 -235 0 -258 14 -14 71 -16 479 -16 408 0
465 2 479 16 13 12 16 39 16 129 0 90 -3 117 -16 129 -14 14 -71 16 -479 16
-408 0 -465 -2 -479 -16z m444 -139 c0 -25 -4 -45 -10 -45 -5 0 -10 16 -10 35
0 21 -5 35 -12 35 -9 0 -8 4 2 10 26 17 30 11 30 -35z m95 28 c-4 -10 -12 -30
-17 -45 -5 -16 -16 -28 -24 -28 -11 0 -10 8 6 39 l20 40 -28 4 c-21 3 -18 4
12 6 33 1 37 -2 31 -16z"/>
<path d="M10006 3304 c-23 -23 -23 -235 0 -258 14 -14 71 -16 479 -16 408 0
465 2 479 16 13 12 16 39 16 129 0 90 -3 117 -16 129 -14 14 -71 16 -479 16
-408 0 -465 -2 -479 -16z m460 -109 c4 -8 -1 -26 -10 -39 -14 -23 -14 -25 2
-29 9 -3 2 -5 -15 -6 -38 -1 -41 8 -13 34 21 19 27 45 11 45 -5 0 -11 -6 -14
-12 -2 -7 -8 -10 -12 -6 -11 11 4 28 26 28 11 0 22 -7 25 -15z m79 -30 c0 -36
-2 -40 -25 -40 -20 0 -26 6 -28 28 -5 42 5 59 30 55 20 -3 23 -9 23 -43z"/>
<path d="M10510 3165 c0 -19 5 -35 10 -35 6 0 10 16 10 35 0 19 -4 35 -10 35
-5 0 -10 -16 -10 -35z"/>
<path d="M1466 2634 c-14 -14 -16 -78 -16 -554 0 -476 2 -540 16 -554 14 -14
166 -16 1524 -16 1358 0 1510 2 1524 16 14 14 16 78 16 554 0 476 -2 540 -16
554 -14 14 -166 16 -1524 16 -1358 0 -1510 -2 -1524 -16z m1034 -124 c6 -11 7
-20 1 -20 -5 0 -11 7 -15 15 -7 20 -42 19 -50 -1 -16 -43 -3 -94 25 -94 11 0
22 7 25 15 4 8 10 15 15 15 18 0 -5 -31 -28 -36 -51 -13 -85 65 -46 108 21 24
60 23 73 -2z m608 13 c-33 -4 -38 -8 -38 -29 0 -20 5 -24 33 -26 l32 -1 -32
-4 c-27 -4 -33 -9 -33 -28 0 -20 6 -24 38 -28 34 -3 33 -4 -10 -5 l-48 -2 0
65 0 65 48 -2 c43 -1 44 -2 10 -5z m-127 -10 c0 -5 1 -32 2 -61 2 -62 -17 -66
-21 -4 -2 23 -8 42 -13 42 -5 0 -4 7 3 15 14 16 28 19 29 8z m490 0 c0 -5 1
-32 2 -61 2 -62 -17 -66 -21 -4 -2 23 -8 42 -13 42 -5 0 -4 7 3 15 14 16 28
19 29 8z m-921 -59 c0 -38 3 -45 18 -42 12 2 18 15 20 46 4 58 22 53 22 -7 0
-46 -1 -49 -27 -49 -16 0 -34 5 -40 10 -15 12 -17 88 -3 88 6 0 10 -21 10 -46z
m117 34 c-11 -6 -17 -22 -17 -48 0 -22 -4 -40 -10 -40 -5 0 -10 22 -10 49 0
46 1 49 27 49 21 0 23 -2 10 -10z m60 0 c-11 -6 -17 -22 -17 -48 0 -22 -4 -40
-10 -40 -5 0 -10 22 -10 49 0 46 1 49 27 49 21 0 23 -2 10 -10z m91 0 c21 -21
13 -38 -18 -38 -20 0 -30 -5 -30 -15 0 -19 32 -33 38 -17 2 7 8 10 13 6 15 -9
0 -24 -25 -24 -41 0 -58 38 -36 81 12 21 40 25 58 7z m104 -1 c11 -18 10 -87
-2 -87 -5 0 -10 21 -10 46 0 38 -3 45 -17 42 -13 -2 -19 -15 -21 -46 -4 -58
-22 -53 -22 6 0 48 0 49 32 50 18 0 36 -5 40 -11z m253 -31 l9 -38 11 38 c5
20 15 39 22 41 8 3 6 -11 -5 -40 -9 -24 -21 -45 -26 -46 -5 -1 -17 19 -27 44
-12 30 -13 45 -6 42 7 -2 16 -21 22 -41z m133 32 c21 -21 13 -38 -18 -38 -20
0 -30 -5 -30 -15 0 -19 32 -33 38 -17 2 7 8 10 13 6 15 -9 0 -24 -25 -24 -41
0 -58 38 -36 81 12 21 40 25 58 7z m104 -1 c11 -18 10 -87 -2 -87 -5 0 -10 21
-10 46 0 38 -3 45 -17 42 -13 -2 -19 -15 -21 -46 -4 -58 -22 -53 -22 6 0 48 0
49 32 50 18 0 36 -5 40 -11z m153 2 c4 -6 4 -13 0 -17 -4 -4 -10 -1 -12 6 -7
17 -33 15 -33 -3 0 -9 12 -20 26 -25 36 -14 29 -45 -10 -45 -16 0 -31 6 -34
13 -3 11 -1 11 17 1 15 -10 23 -11 32 -2 8 8 3 15 -20 27 -29 16 -39 35 -24
49 10 11 51 8 58 -4z m-495 -189 c6 -11 7 -20 1 -20 -5 0 -11 7 -15 15 -7 20
-42 19 -50 -1 -16 -43 -3 -94 25 -94 11 0 22 7 25 15 4 8 10 15 15 15 18 0 -5
-31 -28 -36 -51 -13 -85 65 -46 108 21 24 60 23 73 -2z m100 -29 c5 -11 10
-33 10 -49 0 -26 -3 -29 -35 -30 -23 -1 -38 4 -42 13 -7 20 14 45 38 45 21 0
25 15 8 26 -6 3 -16 1 -22 -5 -17 -17 -31 -13 -17 4 17 21 47 19 60 -4z m67 7
c-11 -6 -17 -22 -17 -48 0 -22 -4 -40 -10 -40 -5 0 -10 22 -10 49 0 46 1 49
27 49 21 0 23 -2 10 -10z m60 0 c-11 -6 -17 -22 -17 -48 0 -22 -4 -40 -10 -40
-5 0 -10 22 -10 49 0 46 1 49 27 49 21 0 23 -2 10 -10z m92 -2 c31 -37 -9
-103 -46 -80 -37 23 -24 94 17 94 10 0 23 -6 29 -14z m-512 -22 c3 -8 -2 -23
-11 -32 -15 -15 -17 -15 -32 0 -21 21 -11 48 16 48 11 0 23 -7 27 -16z m-199
-196 l20 -53 12 30 c7 17 16 40 21 53 17 43 29 23 27 -45 l-1 -68 -6 55 -6 55
-19 -52 c-11 -29 -23 -53 -27 -53 -3 0 -16 21 -27 48 l-20 47 -1 -47 c-1 -27
-5 -48 -11 -48 -6 0 -10 28 -10 65 0 82 19 87 48 13z m480 40 c19 -19 15 -34
-18 -72 l-31 -35 33 -4 c29 -3 27 -4 -10 -5 l-43 -2 21 30 c11 16 25 32 30 35
16 10 12 45 -5 52 -9 3 -22 -2 -30 -13 -8 -11 -15 -14 -15 -8 0 15 22 34 40
34 9 0 21 -5 28 -12z m493 -5 c0 -5 1 -32 2 -61 2 -62 -17 -66 -21 -4 -2 23
-8 42 -13 42 -5 0 -4 7 3 15 14 16 28 19 29 8z m-792 -27 c31 -37 -9 -103 -46
-80 -37 23 -24 94 17 94 10 0 23 -6 29 -14z m68 2 c-11 -6 -17 -22 -17 -48 0
-22 -4 -40 -10 -40 -5 0 -10 22 -10 49 0 46 1 49 27 49 21 0 23 -2 10 -10z
m91 0 c21 -21 13 -38 -18 -38 -20 0 -30 -5 -30 -15 0 -19 32 -33 38 -17 2 7 8
10 13 6 15 -9 0 -24 -25 -24 -41 0 -58 38 -36 81 12 21 40 25 58 7z m280 0
c21 -21 13 -38 -18 -38 -20 0 -30 -5 -30 -15 0 -19 32 -33 38 -17 2 7 8 10 13
6 15 -9 0 -24 -25 -24 -41 0 -58 38 -36 81 12 21 40 25 58 7z m57 -32 l9 -38
11 38 c5 20 15 39 22 41 8 3 6 -11 -5 -40 -9 -24 -21 -45 -26 -46 -5 -1 -17
19 -27 44 -12 30 -13 45 -6 42 7 -2 16 -21 22 -41z m133 32 c21 -21 13 -38
-18 -38 -20 0 -30 -5 -30 -15 0 -19 32 -33 38 -17 2 7 8 10 13 6 15 -9 0 -24
-25 -24 -41 0 -58 38 -36 81 12 21 40 25 58 7z m104 -1 c11 -18 10 -87 -2 -87
-5 0 -10 21 -10 46 0 38 -3 45 -17 42 -13 -2 -19 -15 -21 -46 -4 -58 -22 -53
-22 6 0 48 0 49 32 50 18 0 36 -5 40 -11z m153 2 c4 -6 4 -13 0 -17 -4 -4 -10
-1 -12 6 -7 17 -33 15 -33 -3 0 -9 12 -20 26 -25 36 -14 29 -45 -10 -45 -16 0
-31 6 -34 13 -3 11 -1 11 17 1 15 -10 23 -11 32 -2 8 8 3 15 -20 27 -29 16
-39 35 -24 49 10 11 51 8 58 -4z m-1218 -25 c3 -8 -2 -23 -11 -32 -15 -15 -17
-15 -32 0 -21 21 -11 48 16 48 11 0 23 -7 27 -16z m43 -284 c0 -27 -4 -50 -10
-50 -5 0 -10 23 -10 50 0 28 5 50 10 50 6 0 10 -22 10 -50z m40 0 c0 -27 -4
-50 -10 -50 -5 0 -10 23 -10 50 0 28 5 50 10 50 6 0 10 -22 10 -50z m490 40
c0 -5 -4 -10 -10 -10 -5 0 -10 5 -10 10 0 6 5 10 10 10 6 0 10 -4 10 -10z
m120 -5 c-10 -12 -10 -15 1 -16 10 0 11 -2 2 -6 -7 -2 -13 -18 -13 -34 0 -41
-17 -36 -22 6 -5 40 6 65 29 65 13 0 13 -3 3 -15z m380 5 c0 -5 -4 -10 -10
-10 -5 0 -10 5 -10 10 0 6 5 10 10 10 6 0 10 -4 10 -10z m-1310 -15 c10 -12
10 -15 -4 -15 -9 0 -16 5 -16 10 0 6 -4 10 -10 10 -19 0 -10 -27 13 -37 19 -9
26 -8 35 8 14 21 48 25 55 7 4 -10 7 -10 18 0 12 11 49 17 49 8 0 -2 3 -11 6
-20 4 -12 0 -16 -15 -16 -12 0 -21 -5 -21 -11 0 -6 7 -9 15 -6 8 4 17 2 20 -3
10 -16 -42 -11 -55 5 -14 17 -50 20 -50 4 0 -6 7 -9 15 -6 8 4 17 2 20 -3 4
-6 -5 -10 -19 -10 -14 0 -28 5 -32 11 -4 8 -9 8 -17 0 -16 -16 -52 -14 -67 4
-10 12 -10 15 3 15 8 0 17 -6 20 -12 2 -7 8 -9 13 -5 5 5 -2 16 -15 26 -16 12
-22 24 -18 35 8 20 41 21 57 1z m671 3 c1 -7 0 -24 0 -38 -2 -20 3 -25 24 -26
14 -1 25 2 25 7 0 5 -7 9 -16 9 -24 0 -12 35 14 38 12 2 22 -2 22 -8 0 -7 -7
-10 -15 -6 -8 3 -15 1 -15 -4 0 -6 7 -10 16 -10 9 0 14 -7 12 -17 -2 -13 -14
-18 -45 -20 -39 -2 -41 -1 -45 32 -2 18 -2 38 0 44 5 15 22 14 23 -1z m600 5
c5 -53 2 -83 -7 -83 -12 0 -23 58 -16 79 4 12 22 15 23 4z m-1030 -51 c7 -32
6 -33 -25 -30 -26 3 -31 7 -30 28 2 41 3 42 26 38 16 -2 24 -12 29 -36z m179
34 c0 -2 3 -11 6 -20 4 -12 0 -16 -15 -16 -12 0 -21 -5 -21 -11 0 -6 7 -9 15
-6 8 4 17 1 21 -4 4 -7 -4 -9 -21 -7 -36 4 -54 30 -36 52 12 14 51 23 51 12z
m41 -18 l2 -23 4 23 c2 12 10 22 18 22 10 0 11 -7 2 -35 -6 -19 -16 -35 -22
-35 -6 0 -16 16 -22 35 -9 29 -9 35 3 35 8 0 15 -10 15 -22z m99 10 c0 -10 3
-9 9 1 13 21 31 4 31 -30 0 -29 -1 -30 -41 -27 -49 3 -71 27 -50 52 16 19 51
21 51 4z m74 -4 c10 -27 7 -54 -8 -54 -8 0 -15 14 -18 35 -4 36 14 50 26 19z
m176 -19 c0 -19 -4 -35 -10 -35 -5 0 -10 16 -10 35 0 19 5 35 10 35 6 0 10
-16 10 -35z m38 -3 c2 -24 -1 -32 -12 -32 -12 0 -16 10 -16 36 0 45 24 42 28
-4z m36 22 c10 -27 7 -54 -8 -54 -8 0 -15 14 -18 35 -4 36 14 50 26 19z m121
-3 c9 -28 -5 -52 -28 -49 -29 4 -44 32 -28 52 18 22 48 20 56 -3z m123 -18 c2
-25 -1 -33 -12 -33 -11 0 -17 10 -18 33 l-1 32 -4 -32 c-6 -43 -33 -45 -33 -3
0 17 -4 30 -10 30 -5 0 -10 -13 -10 -30 0 -16 -4 -30 -10 -30 -5 0 -10 16 -10
36 l0 35 53 -3 c51 -3 52 -4 55 -35z m32 2 c0 -19 -4 -35 -9 -35 -5 0 -11 16
-13 35 -3 24 0 35 9 35 8 0 13 -13 13 -35z m71 -3 c7 -32 6 -33 -25 -30 -26 3
-31 7 -30 28 2 41 3 42 26 38 16 -2 24 -12 29 -36z m79 3 c0 -19 -4 -35 -10
-35 -5 0 -10 16 -10 35 0 19 5 35 10 35 6 0 10 -16 10 -35z m70 23 c0 -10 3
-9 9 1 13 21 31 4 31 -30 0 -19 -5 -29 -15 -29 -8 0 -15 6 -15 13 0 9 -3 9 -9
-1 -11 -18 -41 -12 -54 10 -8 12 -7 21 2 32 16 19 51 21 51 4z m76 -10 c9 -31
44 -53 44 -28 0 6 -7 10 -16 10 -24 0 -12 35 14 38 12 2 22 -2 22 -8 0 -7 -7
-10 -15 -6 -8 3 -15 1 -15 -4 0 -6 7 -10 16 -10 9 0 14 -7 12 -17 -2 -13 -14
-18 -45 -20 -40 -2 -41 -1 -45 33 -5 39 16 48 28 12z"/>
<path d="M2777 2483 c-13 -12 -7 -23 13 -23 11 0 20 7 20 15 0 15 -21 21 -33
8z"/>
<path d="M3267 2483 c-13 -12 -7 -23 13 -23 11 0 20 7 20 15 0 15 -21 21 -33
8z"/>
<path d="M3120 2219 c0 -25 33 -22 38 4 2 12 -3 17 -17 17 -15 0 -21 -6 -21
-21z"/>
<path d="M3342 2268 c-28 -28 3 -83 33 -58 8 7 15 20 15 29 0 17 -18 41 -30
41 -3 0 -11 -5 -18 -12z"/>
<path d="M2812 2058 c-28 -28 3 -83 33 -58 8 7 15 20 15 29 0 17 -18 41 -30
41 -3 0 -11 -5 -18 -12z"/>
<path d="M2977 2063 c-13 -12 -7 -23 13 -23 11 0 20 7 20 15 0 15 -21 21 -33
8z"/>
<path d="M3257 2063 c-13 -12 -7 -23 13 -23 11 0 20 7 20 15 0 15 -21 21 -33
8z"/>
<path d="M3447 2063 c-13 -12 -7 -23 13 -23 11 0 20 7 20 15 0 15 -21 21 -33
8z"/>
<path d="M2330 1760 c0 -5 5 -10 11 -10 5 0 7 5 4 10 -3 6 -8 10 -11 10 -2 0
-4 -4 -4 -10z"/>
<path d="M2400 1760 c0 -5 5 -10 11 -10 5 0 7 5 4 10 -3 6 -8 10 -11 10 -2 0
-4 -4 -4 -10z"/>
<path d="M2490 1760 c-13 -8 -12 -10 3 -10 9 0 17 5 17 10 0 12 -1 12 -20 0z"/>
<path d="M2495 1730 c-3 -5 -1 -10 4 -10 6 0 11 5 11 10 0 6 -2 10 -4 10 -3 0
-8 -4 -11 -10z"/>
<path d="M2680 1760 c0 -5 5 -10 11 -10 5 0 7 5 4 10 -3 6 -8 10 -11 10 -2 0
-4 -4 -4 -10z"/>
<path d="M2820 1760 c0 -5 5 -10 11 -10 5 0 7 5 4 10 -3 6 -8 10 -11 10 -2 0
-4 -4 -4 -10z"/>
<path d="M2820 1731 c0 -6 9 -9 20 -8 11 1 20 5 20 9 0 4 -9 8 -20 8 -11 0
-20 -4 -20 -9z"/>
<path d="M3257 1757 c-3 -7 -1 -20 3 -28 7 -11 10 -10 16 4 4 10 2 23 -3 28
-7 7 -12 6 -16 -4z"/>
<path d="M3480 1760 c-13 -8 -12 -10 3 -10 9 0 17 5 17 10 0 12 -1 12 -20 0z"/>
<path d="M3485 1730 c-3 -5 -1 -10 4 -10 6 0 11 5 11 10 0 6 -2 10 -4 10 -3 0
-8 -4 -11 -10z"/>
<path d="M3637 1757 c-3 -7 -1 -20 3 -28 7 -11 10 -10 16 4 4 10 2 23 -3 28
-7 7 -12 6 -16 -4z"/>
</g>
</svg>
